# xmcd CD database file
#
# Track frame offsets:
#	150
#	41892
#	63743
#	129956
#	149798
#	181203
#	208376
#	248889
#	286802
#
# Disc length: 4044 seconds
#
# Revision: 0
# Processed by: cddbd v1.5.2PL0 Copyright (c) Steve Scherf et al.
# Submitted via: CDex 1.70beta2
#
DISCID=950fca09
DTITLE=Alexander von Schlippenbach - Twelve Tone Tales Vol. 1
DYEAR=2006
DGENRE=Jazz
TTITLE0=Twelve Tone Tales: Invention, Paraphrase
TTITLE1=Twelve Tone Tales: Devices and Desires
TTITLE2=Twelve Tone Tales: K 2
TTITLE3=Twelve Tone Tales: Allegro Agitato
TTITLE4=Twelve Tone Tales: The One
TTITLE5=Twelve Tone Tales II: Invention A, Paraphrasse, Invention B
TTITLE6=Twelve Tone Tales II: Only Thing Left
TTITLE7=Twelve Tone Tales II: Meo
TTITLE8=Twelve Tone Tales II: LOK 03
EXTD=YEAR: 2006
EXTT0=
EXTT1=
EXTT2=
EXTT3=
EXTT4=
EXTT5=
EXTT6=
EXTT7=
EXTT8=
PLAYORDER=
